<?xml version="1.0" encoding="UTF-8" standalone="no"?>
<svg width="463px" height="454px" viewBox="0 0 463 454" version="1.1" xmlns="http://www.w3.org/2000/svg" xmlns:xlink="http://www.w3.org/1999/xlink" xmlns:sketch="http://www.bohemiancoding.com/sketch/ns">
    <!-- Generator: Sketch 3.5.2 (25235) - http://www.bohemiancoding.com/sketch -->
    <title>Artboard 2</title>
    <desc>Created with Sketch.</desc>
    <defs>
        <linearGradient x1="100%" y1="50%" x2="0%" y2="50%" id="linearGradient-1">
            <stop stop-color="#D2D2D2" offset="0%"></stop>
            <stop stop-color="#A6A6A6" offset="100%"></stop>
        </linearGradient>
        <linearGradient x1="0%" y1="55.6455851%" x2="98.5530931%" y2="55.645587%" id="linearGradient-2">
            <stop stop-color="#CF5D5D" offset="0%"></stop>
            <stop stop-color="#F17979" offset="100%"></stop>
        </linearGradient>
        <linearGradient x1="100%" y1="50%" x2="0%" y2="50%" id="linearGradient-3">
            <stop stop-color="#F5A82A" offset="0%"></stop>
            <stop stop-color="#E76F12" offset="100%"></stop>
        </linearGradient>
        <linearGradient x1="100%" y1="50%" x2="0%" y2="50%" id="linearGradient-4">
            <stop stop-color="#D9D9D9" offset="0%"></stop>
            <stop stop-color="#ADADAD" offset="100%"></stop>
        </linearGradient>
        <linearGradient x1="100%" y1="50%" x2="1.67211416%" y2="50%" id="linearGradient-5">
            <stop stop-color="#B2B2B2" offset="0%"></stop>
            <stop stop-color="#8A8A8A" offset="100%"></stop>
        </linearGradient>
        <linearGradient x1="82.9589844%" y1="54.7059059%" x2="17.2045898%" y2="54.7059059%" id="linearGradient-6">
            <stop stop-color="#FCE9B0" offset="0%"></stop>
            <stop stop-color="#F8CD78" offset="100%"></stop>
        </linearGradient>
    </defs>
    <g id="Page-1" stroke="none" stroke-width="1" fill="none" fill-rule="evenodd" sketch:type="MSPage">
        <g id="Artboard-2" sketch:type="MSArtboardGroup" transform="translate(-33.000000, -46.000000)">
            <g id="webdesign-2-copy" sketch:type="MSLayerGroup" transform="translate(73.000000, 46.000000)">
                <g id="icons__x28_128_x__x_128_x29_" sketch:type="MSShapeGroup">
                    <g id="Group">
                        <path d="M0,317.538462 L0,33.0769231 C0,14.8846154 14.8359375,0 32.96875,0 L389.03125,0 C407.164062,0 422,14.8846154 422,33.0769231 L422,317.538462 C422,332.092308 410.13125,344 395.625,344 L26.375,344 C11.86875,344 0,332.092308 0,317.538462 Z" id="Shape" fill="#453F3C"></path>
                        <path d="M26.375,330.769231 C19.121875,330.769231 13.1875,324.815385 13.1875,317.538462 L13.1875,33.0769231 C13.1875,22.1615385 22.0890625,13.2307692 32.96875,13.2307692 L389.03125,13.2307692 C399.910937,13.2307692 408.8125,22.1615385 408.8125,33.0769231 L408.8125,317.538462 C408.8125,324.815385 402.878125,330.769231 395.625,330.769231 L26.375,330.769231 Z" id="Shape" fill="#F7F7F7"></path>
                        <g transform="translate(13.187500, 13.230769)">
                            <path d="M0,52.9230769 L0,19.8461538 C0,8.93076923 8.9015625,0 19.78125,0 L375.84375,0 C386.723437,0 395.625,8.93076923 395.625,19.8461538 L395.625,52.9230769 L0,52.9230769 L0,52.9230769 Z" id="Shape" fill="url(#linearGradient-1)"></path>
                            <rect id="Rectangle-path" fill="#453F3C" x="0" y="52.9230769" width="395.625" height="13.2307692"></rect>
                            <rect id="Rectangle-path" opacity="0.14" fill="#000000" x="0" y="66.1538462" width="395.625" height="13.2307692"></rect>
                        </g>
                    </g>
                </g>
            </g>
            <g id="webdesign-2" sketch:type="MSLayerGroup" transform="translate(33.000000, 79.000000)">
                <g id="icons__x28_128_x__x_128_x29_" sketch:type="MSShapeGroup">
                    <g id="Group">
                        <path d="M26.375,344 C11.86875,344 0,332.092308 0,317.538462 L0,33.0769231 C0,14.8846154 14.8359375,0 32.96875,0 L389.03125,0 C407.164062,0 422,14.8846154 422,33.0769231 L422,317.538462 C422,332.092308 410.13125,344 395.625,344 L26.375,344 L26.375,344 Z" id="Shape" fill="#453F3C"></path>
                        <path d="M26.375,330.769231 C19.121875,330.769231 13.1875,324.815385 13.1875,317.538462 L13.1875,33.0769231 C13.1875,22.1615385 22.0890625,13.2307692 32.96875,13.2307692 L389.03125,13.2307692 C399.910937,13.2307692 408.8125,22.1615385 408.8125,33.0769231 L408.8125,317.538462 C408.8125,324.815385 402.878125,330.769231 395.625,330.769231 L26.375,330.769231 Z" id="Shape" fill="#F7F7F7"></path>
                        <g transform="translate(13.187500, 13.230769)">
                            <path d="M0,52.9230769 L0,19.8461538 C0,8.93076923 8.9015625,0 19.78125,0 L375.84375,0 C386.723437,0 395.625,8.93076923 395.625,19.8461538 L395.625,52.9230769 L0,52.9230769 L0,52.9230769 Z" id="Shape" fill="url(#linearGradient-1)"></path>
                            <rect id="Rectangle-path" fill="#453F3C" x="0" y="52.9230769" width="395.625" height="13.2307692"></rect>
                            <rect id="Rectangle-path" opacity="0.14" fill="#000000" x="0" y="66.1538462" width="395.625" height="13.2307692"></rect>
                            <g transform="translate(253.859375, 0.000000)" id="Rectangle-path" fill="#FFFFFF" opacity="0.14">
                                <rect x="0" y="0" width="6.59375" height="52.9230769"></rect>
                                <rect x="13.1875" y="0" width="3.296875" height="52.9230769"></rect>
                            </g>
                            <g transform="translate(26.375000, 13.230769)" id="Oval" fill="#453F3C">
                                <ellipse cx="13.1875" cy="13.2307692" rx="13.1875" ry="13.2307692"></ellipse>
                                <ellipse cx="52.75" cy="13.2307692" rx="13.1875" ry="13.2307692"></ellipse>
                                <ellipse cx="92.3125" cy="13.2307692" rx="13.1875" ry="13.2307692"></ellipse>
                            </g>
                            <path d="M171.4375,39.6923077 C164.184375,39.6923077 158.25,33.7384615 158.25,26.4615385 C158.25,19.1846154 164.184375,13.2307692 171.4375,13.2307692 L356.0625,13.2307692 C363.315625,13.2307692 369.25,19.1846154 369.25,26.4615385 C369.25,33.7384615 363.315625,39.6923077 356.0625,39.6923077 L171.4375,39.6923077 L171.4375,39.6923077 Z" id="Shape" fill="#453F3C"></path>
                        </g>
                    </g>
                </g>
            </g>
            <g id="Pencil" sketch:type="MSLayerGroup" transform="translate(388.448722, 353.516311) rotate(-30.000000) translate(-388.448722, -353.516311) translate(360.054539, 193.799034)">
                <path d="M2.12956369,266.905316 L54.6588015,266.905316 L54.6588015,307.799345 C54.6588015,307.799345 54.6588015,319.434554 28.3941826,319.434554 C2.12956369,319.434554 2.12956369,307.799345 2.12956369,307.799345 L2.12956369,266.905316 Z" id="Rectangle-38-Copy-2" fill="url(#linearGradient-2)" sketch:type="MSShapeGroup"></path>
                <path d="M0,64.5967654 L56.7883652,64.5967654 L56.7883652,257.677207 C56.7883652,257.677207 56.7883652,269.284438 28.3941826,269.284438 C0,269.284438 0,257.677207 0,257.677207 L0,64.5967654 Z" id="Rectangle-38" fill="url(#linearGradient-3)" sketch:type="MSShapeGroup"></path>
                <path d="M0,245.609679 C0,245.609679 0,256.516761 28.3941826,256.516761 C56.7883652,256.516761 56.7883652,245.609679 56.7883652,245.609679 L56.7883652,282.673131 C56.7883652,282.673131 56.7883652,293.21846 28.3941826,293.21846 C0,293.21846 0,282.673131 0,282.673131 L0,245.609679 Z" id="Rectangle-38-Copy" fill="url(#linearGradient-4)" sketch:type="MSShapeGroup"></path>
                <path d="M0,253.41808 C0,253.41808 0,264.325161 28.3941826,264.325161 C56.7883652,264.325161 56.7883652,253.41808 56.7883652,253.41808 L56.7883652,261.377494 C56.7883652,261.377494 56.7883652,271.922824 28.3941826,271.922824 C0,271.922824 0,261.377494 0,261.377494 L0,253.41808 Z" id="Rectangle-38-Copy-3" fill="url(#linearGradient-5)" sketch:type="MSShapeGroup"></path>
                <path d="M0,267.615171 C0,267.615171 0,278.522253 28.3941826,278.522253 C56.7883652,278.522253 56.7883652,267.615171 56.7883652,267.615171 L56.7883652,275.574585 C56.7883652,275.574585 56.7883652,286.119915 28.3941826,286.119915 C0,286.119915 0,275.574585 0,275.574585 L0,267.615171 Z" id="Rectangle-38-Copy-4" fill="url(#linearGradient-5)" sketch:type="MSShapeGroup"></path>
                <path d="M28.3941826,0 L56.7883652,64.4082103 C56.7883652,64.4082103 56.7883652,75.0976218 28.3941826,75.0976218 C0,75.0976218 0,64.4082103 0,64.4082103 L28.3941826,0 Z" id="Triangle-2" fill="url(#linearGradient-6)" sketch:type="MSShapeGroup"></path>
                <path d="M28.7491099,0 L39.0420011,23.3479762 C39.0420011,23.3479762 39.0420011,27.2228879 28.7491099,27.2228879 C18.4562187,27.2228879 18.4562187,23.3479762 18.4562187,23.3479762 L28.7491099,0 Z" id="Triangle-2-Copy" fill="#000000" sketch:type="MSShapeGroup"></path>
            </g>
            <path d="M285.53125,218.644531 C285.531249,218.644531 246.421875,227.269531 232.53125,278.242188 C218.640625,329.214844 172.542969,319.1875 172.542969,319.1875 C172.542969,319.1875 147.03125,319.1875 126.753906,281.851563 C126.753906,282.867188 136.61328,321.269531 172.542969,326.964844 C208.472657,332.660156 229.171875,313.671875 241.171875,281.851563 C253.171875,250.03125 261.999999,233.687501 285.53125,218.644531 Z" id="Path-9" fill="#000000" sketch:type="MSShapeGroup"></path>
        </g>
    </g>
</svg>